<mxfile host="65bd71144e">
    <diagram id="awwQLbMp61nxiMoSuy3x" name="Page-1">
        <mxGraphModel dx="536" dy="546" grid="1" gridSize="10" guides="1" tooltips="1" connect="1" arrows="1" fold="1" page="1" pageScale="1" pageWidth="850" pageHeight="1100" math="0" shadow="0">
            <root>
                <mxCell id="0"/>
                <mxCell id="1" parent="0"/>
                <mxCell id="2" value="Computador anfritriÃ³n" style="rounded=0;whiteSpace=wrap;html=1;fillColor=none;fontColor=light-dark(#006EAF,#006EAF);strokeColor=light-dark(#006EAF,#006EAF);verticalAlign=top;" parent="1" vertex="1">
                    <mxGeometry x="40" y="50" width="190" height="80" as="geometry"/>
                </mxCell>
                <mxCell id="3" value="Hipervisor" style="rounded=0;whiteSpace=wrap;html=1;fillColor=none;fontColor=light-dark(#006EAF,#006EAF);strokeColor=light-dark(#006EAF,#006EAF);" parent="1" vertex="1">
                    <mxGeometry x="40" y="130" width="190" height="40" as="geometry"/>
                </mxCell>
                <mxCell id="4" value="VM1" style="rounded=0;whiteSpace=wrap;html=1;fillColor=none;fontColor=light-dark(#006EAF,#006EAF);strokeColor=light-dark(#006EAF,#006EAF);" parent="1" vertex="1">
                    <mxGeometry x="50" y="80" width="50" height="40" as="geometry"/>
                </mxCell>
                <mxCell id="5" value="VM2" style="rounded=0;whiteSpace=wrap;html=1;fillColor=none;fontColor=light-dark(#006EAF,#006EAF);strokeColor=light-dark(#006EAF,#006EAF);" parent="1" vertex="1">
                    <mxGeometry x="110" y="80" width="50" height="40" as="geometry"/>
                </mxCell>
                <mxCell id="6" value="VM3" style="rounded=0;whiteSpace=wrap;html=1;fillColor=none;fontColor=light-dark(#006EAF,#006EAF);strokeColor=light-dark(#006EAF,#006EAF);" parent="1" vertex="1">
                    <mxGeometry x="170" y="80" width="50" height="40" as="geometry"/>
                </mxCell>
            </root>
        </mxGraphModel>
    </diagram>
</mxfile>